HIERARCHY
ROOT ui
{
	 OFFSET 0 0 0
	 CHANNELS 3 XPosition YPosition Z Position
	 EndSite
	 {
	 OFFSET 0 -1 0
	 }
}
ROOT li
{
	 OFFSET 0 0 0
	 CHANNELS 3 XPosition YPosition Z Position
	 EndSite
	 {
	 OFFSET 0 -1 0
	 }
}
ROOT ul
{
	 OFFSET 0 0 0
	 CHANNELS 3 XPosition YPosition Z Position
	 EndSite
	 {
	 OFFSET 0 -1 0
	 }
}
ROOT ll
{
	 OFFSET 0 0 0
	 CHANNELS 3 XPosition YPosition Z Position
	 EndSite
	 {
	 OFFSET 0 -1 0
	 }
}
ROOT tt
{
	 OFFSET 0 0 0
	 CHANNELS 3 XPosition YPosition Z Position
	 EndSite
	 {
	 OFFSET 0 -1 0
	 }
}
ROOT tb
{
	 OFFSET 0 0 0
	 CHANNELS 3 XPosition YPosition Z Position
	 EndSite
	 {
	 OFFSET 0 -1 0
	 }
}
ROOT td
{
	 OFFSET 0 0 0
	 CHANNELS 3 XPosition YPosition Z Position
	 EndSite
	 {
	 OFFSET 0 -1 0
	 }
}
ROOT v
{
	 OFFSET 0 0 0
	 CHANNELS 3 XPosition YPosition Z Position
	 EndSite
	 {
	 OFFSET 0 -1 0
	 }
}
ROOT bn
{
	 OFFSET 0 0 0
	 CHANNELS 3 XPosition YPosition Z Position
	 EndSite
	 {
	 OFFSET 0 -1 0
	 }
}
MOTION
Frames: 16
Frame Time: 0.002
-9.222570061683655E-4	1.535010039806366E-4	0		0.4801949157714844	-2.414418701171875	0		-1.005265869140625	0.056437610626220706	0		-0.7241278686523438	-2.506503662109375	0		1.4207718505859375	-0.7887127685546875	0		3.277310302734375	-0.15520408630371094	0		4.819119140625	-0.028578443527221678	0		5.58926025390625	0.12825263977050783	0		-0.15636454772949218	5.94272802734375	0		
-0.003038064956665039	0.007905685901641845	0		0.52323291015625	-2.412443115234375	0		-0.9413560791015625	0.06461794281005859	0		-0.7251559448242187	-2.506545654296875	0		1.414376220703125	-0.783362060546875	0		3.22781005859375	-0.1728642578125	0		4.80094140625	-0.026154748916625975	0		5.57498291015625	0.11937622833251953	0		-0.037504528045654295	5.95491796875	0		
-0.011248004913330079	0.008751265525817871	0		0.5181865844726562	-2.417816162109375	0		-0.9506590576171875	0.0577700080871582	0		-0.6671682739257813	-2.507403564453125	0		1.4079892578125	-0.7779854736328125	0		3.243513916015625	-0.17535592651367188	0		4.8055947265625	-0.03598268127441406	0		5.579681640625	0.1093075180053711	0		-0.034893211364746095	5.9536494140625	0		
-0.0016042749881744385	-6.390010118484497E-4	0		0.5152054443359375	-2.4201953125	0		-1.02586474609375	0.058862483978271485	0		-0.729170166015625	-2.508593505859375	0		1.3993853759765624	-0.7885449829101563	0		3.243230712890625	-0.17657814025878907	0		4.81022509765625	-0.046741531372070315	0		5.5794833984375	0.10738721466064453	0		-0.16764260864257813	5.93330517578125	0		
-0.006779583930969238	0.0031966960430145266	0		0.48935784912109376	-2.415218017578125	0		-0.9510891723632813	0.05783523941040039	0		-0.694164794921875	-2.512141845703125	0		1.40688330078125	-0.7922950439453125	0		3.26904541015625	-0.1711140441894531	0		4.80997802734375	-0.048347457885742184	0		5.5833955078125	0.11350370025634765	0		-0.1992700500488281	5.92759326171875	0		
-0.011938796043395997	0.00805391025543213	0		0.4905034484863281	-2.4135966796875	0		-1.0063312377929687	0.05668241500854492	0		-0.7649491577148437	-2.50314404296875	0		1.4184495849609375	-0.7920675048828125	0		3.251634521484375	-0.18095968627929687	0		4.80895166015625	-0.03484534072875976	0		5.58319189453125	0.1117847671508789	0		-0.030516597747802736	5.9529697265625	0		
7.409290075302124E-4	0.0016659950017929078	0		0.5186619262695312	-2.414350830078125	0		-0.9424205932617188	0.06478014373779296	0		-0.69390771484375	-2.51022509765625	0		1.4121094970703125	-0.7865323486328125	0		3.27156494140625	-0.16827549743652342	0		4.80462255859375	-0.04219168472290039	0		5.58298828125	0.11018315887451172	0		-0.029250221252441408	5.9527802734375	0		
-0.007465205192565918	0.002610956907272339	0		0.48684942626953126	-2.416177001953125	0		-1.0267247314453125	0.0591004524230957	0		-0.7326961669921875	-2.508662353515625	0		1.4117034912109374	-0.7870379028320312	0		3.24621484375	-0.1748342742919922	0		4.8043896484375	-0.04348844146728516	0		5.58279150390625	0.10870487213134766	0		-0.029069305419921875	5.9536259765625	0		
0.013402187347412109	0.007132493019104004	0		0.51104296875	-2.421822021484375	0		-0.9519285888671875	0.058009536743164065	0		-0.6995234985351563	-2.51418408203125	0		1.4003126220703126	-0.788327392578125	0		3.24187744140625	-0.18162484741210938	0		4.809033203125	-0.053751853942871096	0		5.5694853515625	0.09955150604248048	0		-0.16035284423828125	5.93151220703125	0		
-0.002921128988265991	-0.0017565490007400513	0		0.45646533203125	-2.416217529296875	0		-1.0152362060546876	0.050043487548828126	0		-0.7721015014648438	-2.50706103515625	0		1.4079237060546874	-0.7918641357421875	0		3.25651318359375	-0.19163204956054689	0		4.80883642578125	-0.05483412170410156	0		5.58244189453125	0.10611598968505859	0		-0.15838906860351562	5.93039111328125	0		
-3.338399901986122E-5	0.0010757319927215576	0		0.524771484375	-2.4235078125	0		-0.9313018798828125	0.05477804946899414	0		-0.7306661987304688	-2.504706787109375	0		1.4186376953125	-0.791409912109375	0		3.280616943359375	-0.1737154541015625	0		4.81277783203125	-0.048877750396728516	0		5.58741162109375	0.11191837310791015	0		-0.14233255004882814	5.940060546875	0		
-1.5932899713516237E-4	9.69169020652771E-4	0		0.48843582153320314	-2.412126220703125	0		-1.019232666015625	0.06722254180908203	0		-0.7332264404296875	-2.506663818359375	0		1.4104332275390625	-0.7886173095703125	0		3.241308349609375	-0.18372622680664064	0		4.8146591796875	-0.048789726257324216	0		5.5821923828125	0.10399451446533203	0		-0.024295816421508788	5.95210986328125	0		
0.02268524932861328	-0.003495573043823242	0		0.5358045043945312	-2.4250615234375	0		-0.9524486694335937	0.0581959228515625	0		-0.7357039184570312	-2.5086220703125	0		1.4043297119140625	-0.7828179931640625	0		3.24119384765625	-0.18428367614746094	0		4.80358154296875	-0.04839468002319336	0		5.57799072265625	0.0951687240600586	0		-0.023535531997680666	5.95201806640625	0		
-0.008276616096496582	0.0019165420532226563	0		0.48357601928710936	-2.417373291015625	0		-1.0274781494140626	0.0594433708190918	0		-0.7109853515625	-2.504023193359375	0		1.4039749755859374	-0.796078125	0		3.24601025390625	-0.1918545684814453	0		4.80352880859375	-0.04908015060424804	0		5.5779560546875	0.0943867416381836	0		-0.02284033203125	5.95193408203125	0		
0.022634939193725587	-0.0036685290336608885	0		0.5082283935546875	-2.422913330078125	0		-0.952484619140625	0.05824927520751953	0		-0.7363355712890625	-2.508618896484375	0		1.4099998779296874	-0.78940869140625	0		3.255311767578125	-0.17243373107910157	0		4.81248681640625	-0.05182375717163086	0		5.5772080078125	0.10872080993652344	0		-0.1545776824951172	5.9300126953125	0		
-0.0033049640655517577	-0.0023212060928344725	0		0.46025091552734376	-2.410250732421875	0		-1.0074641723632813	0.05716188430786133	0		-0.73449169921875	-2.506661865234375	0		1.40996826171875	-0.789614501953125	0		3.255975341796875	-0.19482162475585937	0		4.81453857421875	-0.051373416900634766	0		5.58214306640625	0.10105313873291015	0		-0.14080027770996092	5.94173486328125	0		
